<svg width="85" height="21" viewBox="0 0 85 21" fill="none" xmlns="http://www.w3.org/2000/svg">
<path fill-rule="evenodd" clip-rule="evenodd" d="M19.9239 0.372803C18.1982 0.372803 16.8684 1.10468 15.8902 2.27497H13.0584C11.1084 2.27497 9.60176 3.20959 8.69587 4.65531H5.97236C2.67391 4.65531 0 7.32923 0 10.6277V19.5448C0 19.6634 0.0961489 19.7595 0.214755 19.7595H2.84435C4.52205 19.7595 5.95215 19.0897 6.99164 18.0079C7.02556 17.9726 7.08606 17.9963 7.08606 18.0453V19.5451C7.08606 19.6637 7.18221 19.7598 7.30082 19.7598H9.66512C11.3667 19.7598 12.8136 19.0707 13.8566 17.9617C13.8904 17.9258 13.9515 17.9494 13.9515 17.9986V19.5449C13.9515 19.6635 14.0476 19.7597 14.1663 19.7597H17.0491C20.3476 19.7597 23.0215 17.0857 23.0215 13.7873V0.587557C23.0215 0.468952 22.9253 0.372803 22.8067 0.372803H19.9239ZM20.9813 2.52035H19.9239C17.8115 2.52035 16.099 4.23278 16.099 6.34517V17.6121H17.0491C19.1615 17.6121 20.9813 15.8997 20.9813 13.7873V2.52035ZM13.0584 4.42252H14.0239V13.3609C14.0239 15.7088 12.0131 17.6123 9.66512 17.6123H9.23361V8.24734C9.23361 6.13495 10.946 4.42252 13.0584 4.42252ZM5.97236 6.80286H7.20313V13.3606C7.20313 15.7086 5.19234 17.612 2.84435 17.612H2.14755V10.6277C2.14755 8.51528 3.85997 6.80286 5.97236 6.80286Z" fill="#131212"/>
<path d="M37.8085 6.64823C38.9964 6.64823 39.7045 7.49343 39.7045 9.02391V16.0596H42.5142V9.27519C42.5142 7.79039 43.1081 6.64823 44.5015 6.64823C45.6894 6.64823 46.3975 7.49343 46.3975 9.02391V16.0596H49.2986V8.29293C49.2986 5.71167 47.6767 4.24971 45.5295 4.24971C43.9305 4.24971 42.9025 5.07206 42.2172 6.28274H42.0802C41.4406 4.82079 40.2299 4.24971 38.9507 4.24971C37.2146 4.24971 36.3237 5.32333 35.9582 6.14569H35.8212C35.8212 5.19461 35.0502 4.42362 34.0991 4.42362H31.6921C31.6385 4.42362 31.5949 4.46714 31.5949 4.52082V6.59705C31.5949 6.65073 31.6385 6.69425 31.6921 6.69425H32.9201C32.9738 6.69425 33.0173 6.73777 33.0173 6.79146V16.0596H35.8212V9.29803C35.8212 7.92744 36.3466 6.64823 37.8085 6.64823Z" fill="#131212"/>
<path d="M80.043 16.2196C76.8907 16.2196 75.0404 14.7119 74.8805 12.4733H77.7131C77.8958 13.3185 78.4897 14.0952 80.043 14.0952C81.3223 14.0952 82.1218 13.5241 82.1218 12.7246C82.1218 12.0621 81.4822 11.7652 80.6141 11.5139L78.3755 10.92C76.3653 10.3717 75.1546 9.5494 75.1546 7.69911C75.1546 5.20922 77.5075 4.24981 79.9745 4.24981C83.104 4.24981 84.6117 5.84882 84.8401 7.97323H81.9847C81.8933 7.12803 81.2766 6.37421 79.9288 6.37421C78.878 6.37421 78.01 6.83107 78.01 7.65342C78.01 8.29303 78.5811 8.56715 79.2892 8.77273L81.6192 9.36665C83.9721 9.98342 85 11.057 85 12.6332C85 14.6206 83.1954 16.2196 80.043 16.2196Z" fill="#131212"/>
<path d="M68.9169 16.2196C65.7646 16.2196 63.9143 14.7119 63.7544 12.4733H66.5869C66.7697 13.3185 67.3636 14.0952 68.9169 14.0952C70.1961 14.0952 70.9956 13.5241 70.9956 12.7246C70.9956 12.0621 70.356 11.7652 69.488 11.5139L67.2494 10.92C65.2392 10.3717 64.0285 9.5494 64.0285 7.69911C64.0285 5.20922 66.3813 4.24981 68.8484 4.24981C71.9779 4.24981 73.4855 5.84882 73.714 7.97323H70.8586C70.7672 7.12803 70.1505 6.37421 68.8027 6.37421C67.7519 6.37421 66.8839 6.83107 66.8839 7.65342C66.8839 8.29303 67.455 8.56715 68.1631 8.77273L70.4931 9.36665C72.8459 9.98342 73.8739 11.057 73.8739 12.6332C73.8739 14.6206 72.0693 16.2196 68.9169 16.2196Z" fill="#131212"/>
<path fill-rule="evenodd" clip-rule="evenodd" d="M56.7736 16.2424C53.4033 16.2424 50.8573 14.0266 50.8573 10.2118C50.8573 6.4199 53.4033 4.24981 56.7736 4.24981C60.0954 4.24981 62.6171 6.32853 62.6171 10.2118C62.6171 14.0266 60.1924 16.2424 56.7736 16.2424ZM53.9852 10.2118C53.9852 12.3591 55.0036 13.9581 56.7736 13.9581C58.5436 13.9581 59.4893 12.3591 59.4893 10.2118C59.4893 8.04176 58.5436 6.55696 56.7736 6.55696C55.0036 6.55696 53.9852 8.04176 53.9852 10.2118Z" fill="#131212"/>
</svg>
